<svg xmlns:xlink="http://www.w3.org/1999/xlink" width="39.169" xmlns="http://www.w3.org/2000/svg" height="67.412" id="screenshot-6df054e8-4784-805c-8001-7713a34900b9" viewBox="-0.529 -0.305 39.169 67.412" style="-webkit-print-color-adjust: exact;" fill="none" version="1.1"><g id="shape-6df054e8-4784-805c-8001-7713a34900b9" rx="0" ry="0"><g clip-path="url(#c60daba1-ec25-8079-8001-77c05b522482-6df054e8-4784-805c-8001-77132deaab2f-clip)"><g mask="url(#c60daba1-ec25-8079-8001-77c05b522482-6df054e8-4784-805c-8001-77132deaab2f-mask)"><defs><filter id="c60daba1-ec25-8079-8001-77c05b522482-6df054e8-4784-805c-8001-77132deaab2f-filter"><feFlood flood-color="white" result="FloodResult"/><feComposite in="FloodResult" in2="SourceGraphic" operator="in" result="comp"/></filter><clipPath id="c60daba1-ec25-8079-8001-77c05b522482-6df054e8-4784-805c-8001-77132deaab2f-clip" class="mask-clip-path"><polyline points="37.57698131532982,0.3133562772964069 -0.5290889991365475,-0.3048950473894365 0.534104073461549,66.48846297432283 38.64017438792803,67.10671429900867"/></clipPath><mask id="c60daba1-ec25-8079-8001-77c05b522482-6df054e8-4784-805c-8001-77132deaab2f-mask" x="-0.5290889991365475" y="-0.3048950473894365" width="39.169263387064575" height="67.41160934639811" maskUnits="userSpaceOnUse" class="mask-shape"><g filter="url(#c60daba1-ec25-8079-8001-77c05b522482-6df054e8-4784-805c-8001-77132deaab2f-filter)"><g id="shape-6df054e8-4784-805c-8001-77132deaab2f"><g id="fills-6df054e8-4784-805c-8001-77132deaab2f"><rect rx="0" ry="0" x="1.5916157281026244e-12" y="0" transform="matrix(-0.999868,-0.016222,0.015916,0.999873,37.576981,0.313356)" width="38.11108538878822" height="66.80181925162111" style="fill: rgb(177, 178, 181); fill-opacity: 1;"/></g></g></g></mask></defs><g id="shape-6df054e8-4784-805c-8001-771325c53ded"><g id="fills-6df054e8-4784-805c-8001-771325c53ded"><path rx="0" ry="0" d="M0.033,8.367C13.433,8.584,24.489,19.85,24.707,33.509C24.924,47.168,14.221,58.08,0.821,57.863C-12.58,57.645,-23.636,46.38,-23.853,32.721C-24.071,19.062,-13.368,8.149,0.033,8.367Z"/></g><g id="strokes-6df054e8-4784-805c-8001-771325c53ded"><g class="stroke-shape"><path rx="0" ry="0" d="M0.033,8.367C13.433,8.584,24.489,19.85,24.707,33.509C24.924,47.168,14.221,58.08,0.821,57.863C-12.58,57.645,-23.636,46.38,-23.853,32.721C-24.071,19.062,-13.368,8.149,0.033,8.367Z" style="fill: none; stroke-width: 10; stroke: rgb(6, 203, 121); stroke-opacity: 1;"/></g></g></g></g></g></g></svg>